<?xml version="1.0" encoding="UTF-8" standalone="no" ?>
<!DOCTYPE svg PUBLIC "-//W3C//DTD SVG 1.1//EN" "http://www.w3.org/Graphics/SVG/1.1/DTD/svg11.dtd">
<svg xmlns="http://www.w3.org/2000/svg" xmlns:xlink="http://www.w3.org/1999/xlink" version="1.1" width="500" height="200" viewBox="0 0 500 200" xml:space="preserve">
<desc>Created with Fabric.js 5.2.4</desc>
<defs>
</defs>
<rect x="0" y="0" width="100%" height="100%" fill="transparent"></rect>
<g transform="matrix(1 0 0 1 250 100)" id="fdae392d-fde9-4cda-ab45-68388e7e8974"  >
<rect style="stroke: none; stroke-width: 1; stroke-dasharray: none; stroke-linecap: butt; stroke-dashoffset: 0; stroke-linejoin: miter; stroke-miterlimit: 4; fill: rgb(255,255,255); fill-rule: nonzero; opacity: 1; visibility: hidden;" vector-effect="non-scaling-stroke"  x="-250" y="-100" rx="0" ry="0" width="500" height="200" />
</g>
<g transform="matrix(Infinity NaN NaN Infinity 0 0)" id="3414b1a4-c79e-4712-aa81-7a6cd80e45d3"  >
</g>
<g transform="matrix(1 0 0 1 26.8 100)" id="path5933"  >
<path style="stroke: rgb(0,0,0); stroke-width: 0; stroke-dasharray: none; stroke-linecap: butt; stroke-dashoffset: 0; stroke-linejoin: miter; stroke-miterlimit: 4; fill: rgb(173,177,97); fill-rule: nonzero; opacity: 1;" vector-effect="non-scaling-stroke"  transform=" translate(-474.74, -348.84)" d="M 440.5 251 L 434.0569 257.0726 L 429.8367 256.33164000000005 C 429.8367 256.33164000000005 428.90474 262.04534000000007 429.27293000000003 261.30894000000006 C 429.64110000000005 260.57259000000005 431.67303000000004 260.7451700000001 431.67303000000004 260.7451700000001 L 416.95003 270.5064700000001 L 409.21833000000004 276.03147000000007 L 404.98193000000003 278.97917000000007 L 404.78864000000004 287.08137000000005 L 402.21144000000004 292.23587000000003 L 404.61154000000005 300.88577000000004 L 409.57274000000007 306.58797000000004 L 413.0842400000001 312.11297 L 417.6749400000001 317.07417000000004 L 420.0750400000001 321.13337 L 429.6430400000001 347.82437 L 429.4658600000001 352.60837 C 429.4658600000001 352.60837 429.46386000000007 358.49697 430.38400000000007 358.68097 C 431.3044500000001 358.86507 433.51580000000007 362.36047 433.33170000000007 363.46497 C 433.14761000000004 364.56946999999997 433.1384100000001 372.67867 433.1384100000001 372.67867 L 437.19761000000005 380.58757 L 439.58161000000007 387.22397 L 448.60201000000006 394.58527000000004 C 448.60201000000006 394.58527000000004 455.5974100000001 396.96927000000005 456.3338100000001 396.96927000000005 C 457.0701700000001 396.96927000000005 459.4679100000001 396.97427000000005 459.6520100000001 397.71023 C 459.8361000000001 398.44658000000004 460.57015000000007 402.67603 460.57015000000007 403.41243000000003 C 460.57015000000007 404.14879 462.42025000000007 408.01693 462.05205000000007 408.93743 C 461.68387000000007 409.85788 460.7634500000001 415.38053 460.7634500000001 415.38053 L 446.2184500000001 417.58733 L 434.4274500000001 418.52158000000003 L 432.9616500000001 420.53508000000005 L 431.1253500000001 420.16460000000006 C 431.1253500000001 420.16460000000006 432.2160500000001 417.40330000000006 431.4797200000001 417.58740000000006 C 430.7433700000001 417.7714900000001 423.0185200000001 416.6807600000001 422.2821200000001 417.23303000000004 C 421.5457600000001 417.78530000000006 417.4981200000001 420.16463000000005 417.4981200000001 420.16463000000005 L 416.9504500000001 424.22383 L 419.3344500000001 431.95553 C 419.3344500000001 431.95553 423.2049500000001 435.26453000000004 423.94125000000014 435.08043000000004 C 424.67761000000013 434.89634 427.06615000000016 435.08043000000004 427.06615000000016 435.08043000000004 C 427.06615000000016 435.08043000000004 427.24564000000015 438.38943000000006 427.61381000000017 439.49393000000003 C 427.98199000000017 440.59843 428.7252100000002 443.18033 430.0139100000002 444.10073000000006 C 431.30251000000015 445.02117000000004 440.3229100000002 446.67793000000006 440.3229100000002 446.67793000000006 L 448.0547100000002 445.9369700000001 C 448.0547100000002 445.9369700000001 450.08661000000023 443.9188700000001 449.16611000000023 443.1825700000001 C 448.2456600000002 442.4462000000001 446.39551000000023 440.6053700000001 446.39551000000023 440.6053700000001 L 453.0319100000002 441.1530300000001 C 453.0319100000002 441.1530300000001 451.3659100000002 443.3621300000001 452.8386200000002 443.7302300000001 C 454.3113200000002 444.0984100000001 461.68182000000024 446.3074300000001 461.68182000000024 446.3074300000001 L 467.2068200000002 444.8416300000001 L 476.0339200000002 446.1302300000001 C 476.0339200000002 446.1302300000001 474.7545200000002 444.6529300000001 476.2272100000002 444.1006300000001 C 477.69991000000016 443.54836000000006 478.9839100000002 444.1056300000001 480.6407100000002 444.84159000000005 C 482.29751000000016 445.57795000000004 482.2929100000002 443.91884000000005 483.7656100000002 444.47111000000007 C 485.2383100000002 445.02337000000006 488.1791100000002 445.01878000000005 488.1791100000002 445.01878000000005 C 488.1791100000002 445.01878000000005 493.8974100000002 445.21207000000004 495.1860100000002 445.21207000000004 C 496.47461000000015 445.21207000000004 509.53801000000016 444.29392 509.53801000000016 444.29392 L 513.0334100000001 440.42802 L 515.2402100000002 435.27352 L 514.1449100000002 434.16212 L 513.2267600000002 430.11902000000003 L 510.82666000000023 428.45992 L 508.4426600000002 425.51222 L 502.17676000000023 423.67592 L 496.2812600000002 422.19402 C 496.2812600000002 422.19402 494.4449600000002 421.82584 494.4449600000002 420.90542000000005 C 494.4449600000002 419.98498000000006 495.5563600000002 414.83282 495.5563600000002 414.83282 L 496.1040200000002 406.73062000000004 L 494.81542000000024 398.45122000000003 L 493.1563200000002 394.95582 L 497.76312000000024 386.48312000000004 C 497.76312000000024 386.48312000000004 501.26312000000024 379.12182000000007 500.71082000000024 377.83322000000004 C 500.1585500000002 376.54462000000007 501.06519000000026 371.93782000000004 501.06519000000026 371.93782000000004 L 502.35379000000023 362.54702000000003 C 502.35379000000023 362.54702000000003 499.4221900000002 355.74492000000004 499.4221900000002 355.00852000000003 C 499.4221900000002 354.27216000000004 497.20159000000024 352.98582000000005 496.2811900000002 352.80172000000005 C 495.3607400000002 352.61764000000005 488.5493900000002 352.97891000000004 488.5493900000002 352.97891000000004 C 488.5493900000002 352.97891000000004 484.51099000000016 354.62881000000004 483.95869000000016 355.73331 C 483.40642000000014 356.83781 480.4517900000002 360.52191 479.8994900000002 361.25831 C 479.3472300000002 361.99467 478.0631900000002 361.25831 478.0631900000002 361.25831 L 477.3222300000002 358.68111 L 480.44713000000024 355.55620999999996 C 480.44713000000024 355.55620999999996 479.54049000000026 349.85170999999997 478.80413000000027 349.48360999999994 C 478.0677700000003 349.11542999999995 475.8564300000003 342.29950999999994 475.8564300000003 342.29950999999994 L 474.9382900000003 333.27910999999995 L 474.37451000000027 327.3836099999999 C 474.37451000000027 327.3836099999999 475.84491000000025 324.44740999999993 476.58131000000026 323.71100999999993 C 477.31767000000025 322.9746599999999 476.95179000000024 321.3109099999999 476.95179000000024 321.3109099999999 L 480.26999000000023 319.2974099999999 L 481.5585900000002 311.5656099999999 L 480.0927900000002 306.95880999999986 L 478.4336900000002 304.18820999999986 L 474.3744900000002 302.5452099999999 L 469.5904900000002 302.1747299999999 L 465.7245900000002 302.1747299999999 L 467.0131900000002 299.7746299999999 L 467.38367000000017 297.5678299999999 L 468.49507000000017 295.5382299999999 L 469.78367000000014 292.04282999999987 L 471.99047000000013 290.94752999999986 L 472.53813000000014 289.28842999999983 C 472.53813000000014 289.28842999999983 470.70413000000013 286.1589299999998 471.07233000000014 285.4225299999998 C 471.44051000000013 284.68616999999983 471.79718000000014 282.4748299999998 471.79718000000014 282.4748299999998 L 479.8993800000001 282.10434999999984 L 473.6495800000001 277.32034999999985 L 473.6495800000001 274.5498499999998 L 519.8465800000001 287.43584999999985 L 531.9915800000001 290.01304999999985 L 542.6705800000001 290.01304999999985 C 542.6705800000001 290.01304999999985 545.6205800000001 288.54954999999984 545.9887800000001 287.62904999999984 C 546.3569600000002 286.7085999999998 547.2773800000001 280.63824999999986 547.2773800000001 280.63824999999986 L 545.6182800000001 278.4153499999999 L 471.79628000000014 262.40434999999985 L 469.21908000000013 264.24064999999985 L 464.98268000000013 264.43394999999987 C 464.98268000000013 264.43394999999987 464.7985900000001 263.14074999999985 464.98268000000013 262.40434999999985 C 465.16678000000013 261.66799999999984 461.8577800000001 257.79754999999983 461.8577800000001 257.79754999999983 L 459.2805800000001 257.79754999999983 L 457.2509800000001 255.41354999999984 L 455.0441800000001 257.44314999999983 L 453.3850800000001 255.96124999999984 L 451.7420800000001 254.49544999999983 L 449.1648800000001 253.38404999999983 L 446.5876800000001 252.83638999999982 L 444.7352800000001 251.17728999999983 L 442.3512800000001 251.54776999999982 L 440.4988800000001 251.0001099999998 z M 441.06377 268.106 C 441.80012999999997 268.106 442.52957 269.2174 442.52957 269.2174 C 442.52957 269.2174 441.61602999999997 271.2447 441.06377 272.1651 C 440.51149999999996 273.08555 441.43424999999996 276.95369999999997 441.43424999999996 277.6901 C 441.43424999999996 278.42645999999996 440.14565 283.7627 440.14565 283.7627 L 442.35245 284.858 L 443.81825 288.1762 L 443.44777 293.1535 L 439.40477 297.567 L 435.16837 298.48515000000003 L 428.54807 296.64885000000004 L 422.82977 292.41245000000004 L 418.23906999999997 285.42165000000006 L 420.07536999999996 283.21485000000007 L 426.69566999999995 277.6898500000001 C 426.69566999999995 277.6898500000001 432.77286999999995 273.2625500000001 433.50926999999996 272.3420500000001 C 434.24562999999995 271.4216100000001 437.00696999999997 270.13065000000006 437.37516999999997 269.3943500000001 C 437.74334999999996 268.6579900000001 440.32746999999995 268.1057500000001 441.06386999999995 268.1057500000001 z" stroke-linecap="round" />
</g>
<g transform="matrix(1 0 0 1 398.56 100)" style="" id="ca86bfb9-b528-4809-bbad-4de3cd125d6f"  >
		<text xml:space="preserve" font-family="Raleway" font-size="105" font-style="normal" font-weight="900" style="stroke: none; stroke-width: 1; stroke-dasharray: none; stroke-linecap: butt; stroke-dashoffset: 0; stroke-linejoin: miter; stroke-miterlimit: 4; fill: rgb(255,253,253); fill-rule: nonzero; opacity: 1; white-space: pre;" ><tspan x="-316.3" y="32.98" style="white-space: pre; ">Live </tspan><tspan x="-80.05" y="32.98" style="fill: rgb(241,4,4); ">Score</tspan></text>
</g>
</svg>